<svg xmlns="http://www.w3.org/2000/svg" xmlns:xlink="http://www.w3.org/1999/xlink" width="1024px" height="400px"><style type="text/css">
path { fill: none; stroke: rgb(51,51,51); }
path.series { stroke: #6b63ff; }
rect.background { fill: none; stroke: none; }

text {
	stroke-width: 0;
	stroke: none;
	fill: rgba(51,51,51,1.0);
	font-size: 12.8px;
	font-family: 'Roboto Medium', sans-serif;
}

@media (prefers-color-scheme: dark) {
	path { stroke: rgb(230, 237, 243); }
	path.series { stroke: #6b63ff; }
	text { fill: rgb(230, 237, 243); }
}
</style><rect class="background" rx="8" x="0" y="0" width="1024px" height="400px" /><rect width="1024px" height="400px" class="background" rx="8" x="0" y="0"></rect><path stroke-width="2" class="series" d="M 58 345 L 84 344 L 151 344 L 151 343 L 151 343 L 151 342 L 152 342 L 152 341 L 152 341 L 152 340 L 152 340 L 152 339 L 153 339 L 154 338 L 154 338 L 158 337 L 158 337 L 159 336 L 161 336 L 162 335 L 163 335 L 169 334 L 170 333 L 178 333 L 190 332 L 191 332 L 191 331 L 192 331 L 258 330 L 258 330 L 261 329 L 271 329 L 273 328 L 278 328 L 304 327 L 305 327 L 305 326 L 306 326 L 324 325 L 344 325 L 345 324 L 347 324 L 384 323 L 386 322 L 386 322 L 386 321 L 387 321 L 387 320 L 389 320 L 389 319 L 389 319 L 389 318 L 390 318 L 390 317 L 390 317 L 390 316 L 390 316 L 390 315 L 390 315 L 390 314 L 391 314 L 391 313 L 391 313 L 391 312 L 391 311 L 391 311 L 391 310 L 391 310 L 391 309 L 391 309 L 391 308 L 391 308 L 391 307 L 391 307 L 391 306 L 391 306 L 391 305 L 391 305 L 391 304 L 392 304 L 392 303 L 392 303 L 392 302 L 392 302 L 392 301 L 392 300 L 392 300 L 392 299 L 392 299 L 392 298 L 392 298 L 392 297 L 392 297 L 393 296 L 393 296 L 393 295 L 393 295 L 393 294 L 393 294 L 393 293 L 393 293 L 394 292 L 394 292 L 394 291 L 394 291 L 394 290 L 395 289 L 395 289 L 395 288 L 395 288 L 395 287 L 395 287 L 396 286 L 396 286 L 396 285 L 396 285 L 397 284 L 397 284 L 397 283 L 398 283 L 398 282 L 398 282 L 399 281 L 399 281 L 399 280 L 400 280 L 400 279 L 400 278 L 400 278 L 400 277 L 400 277 L 400 276 L 400 276 L 400 275 L 400 275 L 400 274 L 401 274 L 401 273 L 401 273 L 401 272 L 401 272 L 401 271 L 401 271 L 401 270 L 401 270 L 402 269 L 402 269 L 402 268 L 402 267 L 403 267 L 404 266 L 404 266 L 404 265 L 404 265 L 404 264 L 405 264 L 405 263 L 405 263 L 406 262 L 406 262 L 406 261 L 407 261 L 407 260 L 407 260 L 407 259 L 407 259 L 408 258 L 408 258 L 409 257 L 409 256 L 409 256 L 409 255 L 410 255 L 410 254 L 412 254 L 413 253 L 413 253 L 413 252 L 414 252 L 415 251 L 415 251 L 415 250 L 416 250 L 416 249 L 416 249 L 416 248 L 416 248 L 416 247 L 417 247 L 418 246 L 418 245 L 420 245 L 420 244 L 422 244 L 422 243 L 422 243 L 422 242 L 422 242 L 422 241 L 422 241 L 423 240 L 423 240 L 423 239 L 425 239 L 425 238 L 425 238 L 425 237 L 425 237 L 426 236 L 427 236 L 427 235 L 428 234 L 428 234 L 428 233 L 428 233 L 428 232 L 428 232 L 428 231 L 428 231 L 428 230 L 428 230 L 428 229 L 428 229 L 428 228 L 428 228 L 428 227 L 428 227 L 428 226 L 428 226 L 428 225 L 428 225 L 428 224 L 429 223 L 429 223 L 429 222 L 429 222 L 429 221 L 429 221 L 429 220 L 429 220 L 429 219 L 429 219 L 430 218 L 430 218 L 430 217 L 430 217 L 430 216 L 430 216 L 430 215 L 430 215 L 430 214 L 430 214 L 430 213 L 430 212 L 431 212 L 432 211 L 432 211 L 432 210 L 434 210 L 434 209 L 436 209 L 436 208 L 436 208 L 436 207 L 436 207 L 436 206 L 436 206 L 436 205 L 436 205 L 436 204 L 436 204 L 436 203 L 437 203 L 437 202 L 437 201 L 437 201 L 437 200 L 437 200 L 438 199 L 438 199 L 438 198 L 438 198 L 438 197 L 442 197 L 442 196 L 443 196 L 443 195 L 445 195 L 445 194 L 445 194 L 445 193 L 445 193 L 445 192 L 445 192 L 446 191 L 446 190 L 447 190 L 448 189 L 449 189 L 449 188 L 449 188 L 449 187 L 449 187 L 451 186 L 452 186 L 453 185 L 453 185 L 453 184 L 453 184 L 453 183 L 454 183 L 454 182 L 455 182 L 455 181 L 456 181 L 457 180 L 457 179 L 458 179 L 458 178 L 459 178 L 459 177 L 459 177 L 459 176 L 459 176 L 459 175 L 459 175 L 459 174 L 459 174 L 459 173 L 459 173 L 459 172 L 460 172 L 460 171 L 460 171 L 460 170 L 460 170 L 460 169 L 460 168 L 460 168 L 460 167 L 460 167 L 460 166 L 461 166 L 461 165 L 461 165 L 461 164 L 461 164 L 461 163 L 462 163 L 463 162 L 463 162 L 463 161 L 464 161 L 464 160 L 465 160 L 466 159 L 466 159 L 466 158 L 467 157 L 467 157 L 467 156 L 467 156 L 467 155 L 467 155 L 467 154 L 467 154 L 467 153 L 467 153 L 467 152 L 467 152 L 467 151 L 467 151 L 467 150 L 467 150 L 467 149 L 468 149 L 468 148 L 468 148 L 469 147 L 469 146 L 469 146 L 469 145 L 469 145 L 469 144 L 471 144 L 471 143 L 474 143 L 474 142 L 474 142 L 474 141 L 474 141 L 474 140 L 474 140 L 474 139 L 474 139 L 474 138 L 474 138 L 474 137 L 475 137 L 475 136 L 475 135 L 475 135 L 475 134 L 475 134 L 475 133 L 475 133 L 476 132 L 476 132 L 476 131 L 476 131 L 476 130 L 476 130 L 476 129 L 476 129 L 476 128 L 476 128 L 476 127 L 476 127 L 476 126 L 477 126 L 477 125 L 477 124 L 477 124 L 477 123 L 477 123 L 477 122 L 477 122 L 478 121 L 478 121 L 479 120 L 480 120 L 482 119 L 482 119 L 482 118 L 482 118 L 482 117 L 482 117 L 482 116 L 482 116 L 483 115 L 484 115 L 484 114 L 484 113 L 485 113 L 485 112 L 485 112 L 485 111 L 486 111 L 486 110 L 489 110 L 490 109 L 490 109 L 490 108 L 490 108 L 491 107 L 491 107 L 491 106 L 492 106 L 492 105 L 492 105 L 492 104 L 492 104 L 493 103 L 494 102 L 494 102 L 496 101 L 497 101 L 499 100 L 500 100 L 501 99 L 502 99 L 504 98 L 506 98 L 509 97 L 513 97 L 513 96 L 514 96 L 515 95 L 515 95 L 515 94 L 520 94 L 521 93 L 522 92 L 522 92 L 523 91 L 523 91 L 524 90 L 525 90 L 525 89 L 528 89 L 529 88 L 529 88 L 530 87 L 530 87 L 530 86 L 533 86 L 533 85 L 536 85 L 536 84 L 536 84 L 536 83 L 536 83 L 537 82 L 538 82 L 540 81 L 544 80 L 548 80 L 561 79 L 562 79 L 567 78 L 569 78 L 570 77 L 570 77 L 570 76 L 570 76 L 572 75 L 577 75 L 582 74 L 584 74 L 584 73 L 584 73 L 585 72 L 588 72 L 592 71 L 594 71 L 598 70 L 599 69 L 600 69 L 605 68 L 618 68 L 621 67 L 623 67 L 624 66 L 626 66 L 629 65 L 630 65 L 640 64 L 641 64 L 643 63 L 645 63 L 668 62 L 671 62 L 673 61 L 675 61 L 676 60 L 676 60 L 677 59 L 677 58 L 685 58 L 688 57 L 693 57 L 694 56 L 694 56 L 706 55 L 708 55 L 721 54 L 726 54 L 729 53 L 736 53 L 738 52 L 738 52 L 746 51 L 761 51 L 762 50 L 768 50 L 769 49 L 769 49 L 780 48 L 793 47 L 801 47 L 801 46 L 801 46 L 801 45 L 801 45 L 801 44 L 801 44 L 802 43 L 802 43 L 806 42 L 809 42 L 814 41 L 814 41 L 815 40 L 817 40 L 824 39 L 837 39 L 837 38 L 837 38 L 838 37 L 838 36 L 838 36 L 839 35 L 840 35 L 846 34 L 847 34 L 849 33 L 853 33 L 855 32 L 861 32 L 861 31 L 861 31 L 861 30 L 863 30 L 867 29 L 870 29 L 870 28 L 879 28 L 880 27 L 886 27 L 901 26 L 901 25 L 902 25 L 907 24 L 908 24 L 909 23 L 922 23 L 924 22 L 929 22 L 931 21 L 935 21 L 944 20 L 945 20" /><path stroke-width="2" class="series" d="M 58 345 L 84 344 L 151 344 L 151 343 L 151 343 L 151 342 L 152 342 L 152 341 L 152 341 L 152 340 L 152 340 L 152 339 L 153 339 L 154 338 L 154 338 L 158 337 L 158 337 L 159 336 L 161 336 L 162 335 L 163 335 L 169 334 L 170 333 L 178 333 L 190 332 L 191 332 L 191 331 L 192 331 L 258 330 L 258 330 L 261 329 L 271 329 L 273 328 L 278 328 L 304 327 L 305 327 L 305 326 L 306 326 L 324 325 L 344 325 L 345 324 L 347 324 L 384 323 L 386 322 L 386 322 L 386 321 L 387 321 L 387 320 L 389 320 L 389 319 L 389 319 L 389 318 L 390 318 L 390 317 L 390 317 L 390 316 L 390 316 L 390 315 L 390 315 L 390 314 L 391 314 L 391 313 L 391 313 L 391 312 L 391 311 L 391 311 L 391 310 L 391 310 L 391 309 L 391 309 L 391 308 L 391 308 L 391 307 L 391 307 L 391 306 L 391 306 L 391 305 L 391 305 L 391 304 L 392 304 L 392 303 L 392 303 L 392 302 L 392 302 L 392 301 L 392 300 L 392 300 L 392 299 L 392 299 L 392 298 L 392 298 L 392 297 L 392 297 L 393 296 L 393 296 L 393 295 L 393 295 L 393 294 L 393 294 L 393 293 L 393 293 L 394 292 L 394 292 L 394 291 L 394 291 L 394 290 L 395 289 L 395 289 L 395 288 L 395 288 L 395 287 L 395 287 L 396 286 L 396 286 L 396 285 L 396 285 L 397 284 L 397 284 L 397 283 L 398 283 L 398 282 L 398 282 L 399 281 L 399 281 L 399 280 L 400 280 L 400 279 L 400 278 L 400 278 L 400 277 L 400 277 L 400 276 L 400 276 L 400 275 L 400 275 L 400 274 L 401 274 L 401 273 L 401 273 L 401 272 L 401 272 L 401 271 L 401 271 L 401 270 L 401 270 L 402 269 L 402 269 L 402 268 L 402 267 L 403 267 L 404 266 L 404 266 L 404 265 L 404 265 L 404 264 L 405 264 L 405 263 L 405 263 L 406 262 L 406 262 L 406 261 L 407 261 L 407 260 L 407 260 L 407 259 L 407 259 L 408 258 L 408 258 L 409 257 L 409 256 L 409 256 L 409 255 L 410 255 L 410 254 L 412 254 L 413 253 L 413 253 L 413 252 L 414 252 L 415 251 L 415 251 L 415 250 L 416 250 L 416 249 L 416 249 L 416 248 L 416 248 L 416 247 L 417 247 L 418 246 L 418 245 L 420 245 L 420 244 L 422 244 L 422 243 L 422 243 L 422 242 L 422 242 L 422 241 L 422 241 L 423 240 L 423 240 L 423 239 L 425 239 L 425 238 L 425 238 L 425 237 L 425 237 L 426 236 L 427 236 L 427 235 L 428 234 L 428 234 L 428 233 L 428 233 L 428 232 L 428 232 L 428 231 L 428 231 L 428 230 L 428 230 L 428 229 L 428 229 L 428 228 L 428 228 L 428 227 L 428 227 L 428 226 L 428 226 L 428 225 L 428 225 L 428 224 L 429 223 L 429 223 L 429 222 L 429 222 L 429 221 L 429 221 L 429 220 L 429 220 L 429 219 L 429 219 L 430 218 L 430 218 L 430 217 L 430 217 L 430 216 L 430 216 L 430 215 L 430 215 L 430 214 L 430 214 L 430 213 L 430 212 L 431 212 L 432 211 L 432 211 L 432 210 L 434 210 L 434 209 L 436 209 L 436 208 L 436 208 L 436 207 L 436 207 L 436 206 L 436 206 L 436 205 L 436 205 L 436 204 L 436 204 L 436 203 L 437 203 L 437 202 L 437 201 L 437 201 L 437 200 L 437 200 L 438 199 L 438 199 L 438 198 L 438 198 L 438 197 L 442 197 L 442 196 L 443 196 L 443 195 L 445 195 L 445 194 L 445 194 L 445 193 L 445 193 L 445 192 L 445 192 L 446 191 L 446 190 L 447 190 L 448 189 L 449 189 L 449 188 L 449 188 L 449 187 L 449 187 L 451 186 L 452 186 L 453 185 L 453 185 L 453 184 L 453 184 L 453 183 L 454 183 L 454 182 L 455 182 L 455 181 L 456 181 L 457 180 L 457 179 L 458 179 L 458 178 L 459 178 L 459 177 L 459 177 L 459 176 L 459 176 L 459 175 L 459 175 L 459 174 L 459 174 L 459 173 L 459 173 L 459 172 L 460 172 L 460 171 L 460 171 L 460 170 L 460 170 L 460 169 L 460 168 L 460 168 L 460 167 L 460 167 L 460 166 L 461 166 L 461 165 L 461 165 L 461 164 L 461 164 L 461 163 L 462 163 L 463 162 L 463 162 L 463 161 L 464 161 L 464 160 L 465 160 L 466 159 L 466 159 L 466 158 L 467 157 L 467 157 L 467 156 L 467 156 L 467 155 L 467 155 L 467 154 L 467 154 L 467 153 L 467 153 L 467 152 L 467 152 L 467 151 L 467 151 L 467 150 L 467 150 L 467 149 L 468 149 L 468 148 L 468 148 L 469 147 L 469 146 L 469 146 L 469 145 L 469 145 L 469 144 L 471 144 L 471 143 L 474 143 L 474 142 L 474 142 L 474 141 L 474 141 L 474 140 L 474 140 L 474 139 L 474 139 L 474 138 L 474 138 L 474 137 L 475 137 L 475 136 L 475 135 L 475 135 L 475 134 L 475 134 L 475 133 L 475 133 L 476 132 L 476 132 L 476 131 L 476 131 L 476 130 L 476 130 L 476 129 L 476 129 L 476 128 L 476 128 L 476 127 L 476 127 L 476 126 L 477 126 L 477 125 L 477 124 L 477 124 L 477 123 L 477 123 L 477 122 L 477 122 L 478 121 L 478 121 L 479 120 L 480 120 L 482 119 L 482 119 L 482 118 L 482 118 L 482 117 L 482 117 L 482 116 L 482 116 L 483 115 L 484 115 L 484 114 L 484 113 L 485 113 L 485 112 L 485 112 L 485 111 L 486 111 L 486 110 L 489 110 L 490 109 L 490 109 L 490 108 L 490 108 L 491 107 L 491 107 L 491 106 L 492 106 L 492 105 L 492 105 L 492 104 L 492 104 L 493 103 L 494 102 L 494 102 L 496 101 L 497 101 L 499 100 L 500 100 L 501 99 L 502 99 L 504 98 L 506 98 L 509 97 L 513 97 L 513 96 L 514 96 L 515 95 L 515 95 L 515 94 L 520 94 L 521 93 L 522 92 L 522 92 L 523 91 L 523 91 L 524 90 L 525 90 L 525 89 L 528 89 L 529 88 L 529 88 L 530 87 L 530 87 L 530 86 L 533 86 L 533 85 L 536 85 L 536 84 L 536 84 L 536 83 L 536 83 L 537 82 L 538 82 L 540 81 L 544 80 L 548 80 L 561 79 L 562 79 L 567 78 L 569 78 L 570 77 L 570 77 L 570 76 L 570 76 L 572 75 L 577 75 L 582 74 L 584 74 L 584 73 L 584 73 L 585 72 L 588 72 L 592 71 L 594 71 L 598 70 L 599 69 L 600 69 L 605 68 L 618 68 L 621 67 L 623 67 L 624 66 L 626 66 L 629 65 L 630 65 L 640 64 L 641 64 L 643 63 L 645 63 L 668 62 L 671 62 L 673 61 L 675 61 L 676 60 L 676 60 L 677 59 L 677 58 L 685 58 L 688 57 L 693 57 L 694 56 L 694 56 L 706 55 L 708 55 L 721 54 L 726 54 L 729 53 L 736 53 L 738 52 L 738 52 L 746 51 L 761 51 L 762 50 L 768 50 L 769 49 L 769 49 L 780 48 L 793 47 L 801 47 L 801 46 L 801 46 L 801 45 L 801 45 L 801 44 L 801 44 L 802 43 L 802 43 L 806 42 L 809 42 L 814 41 L 814 41 L 815 40 L 817 40 L 824 39 L 837 39 L 837 38 L 837 38 L 838 37 L 838 36 L 838 36 L 839 35 L 840 35 L 846 34 L 847 34 L 849 33 L 853 33 L 855 32 L 861 32 L 861 31 L 861 31 L 861 30 L 863 30 L 867 29 L 870 29 L 870 28 L 879 28 L 880 27 L 886 27 L 901 26 L 901 25 L 902 25 L 907 24 L 908 24 L 909 23 L 922 23 L 924 22 L 929 22 L 931 21 L 935 21 L 944 20 L 945 20"></path><path stroke-width="2" d="M 945 346 L 945.000000 15.000000" /><path stroke-width="2" d="M 945 346 L 945.000000 15.000000"></path><path d="M 945 346 L 950 346" stroke-width="2" /><path stroke-width="2" d="M 945 346 L 950 346"></path><text xmlns="http://www.w3.org/2000/svg" x="955" y="352">0</text><path d="M 945 309 L 950 309" stroke-width="2" /><path stroke-width="2" d="M 945 309 L 950 309"></path><text xmlns="http://www.w3.org/2000/svg" x="955" y="315">70</text><path stroke-width="2" d="M 945 272 L 950 272" /><path stroke-width="2" d="M 945 272 L 950 272"></path><text y="278" xmlns="http://www.w3.org/2000/svg" x="955">140</text><path d="M 945 236 L 950 236" stroke-width="2" /><path stroke-width="2" d="M 945 236 L 950 236"></path><text xmlns="http://www.w3.org/2000/svg" x="955" y="242">210</text><path stroke-width="2" d="M 945 199 L 950 199" /><path stroke-width="2" d="M 945 199 L 950 199"></path><text xmlns="http://www.w3.org/2000/svg" x="955" y="205">280</text><path stroke-width="2" d="M 945 162 L 950 162" /><path stroke-width="2" d="M 945 162 L 950 162"></path><text y="168" xmlns="http://www.w3.org/2000/svg" x="955">350</text><path stroke-width="2" d="M 945 126 L 950 126" /><path stroke-width="2" d="M 945 126 L 950 126"></path><text xmlns="http://www.w3.org/2000/svg" x="955" y="132">420</text><path stroke-width="2" d="M 945 89 L 950 89" /><path stroke-width="2" d="M 945 89 L 950 89"></path><text xmlns="http://www.w3.org/2000/svg" x="955" y="95">490</text><path stroke-width="2" d="M 945 52 L 950 52" /><path stroke-width="2" d="M 945 52 L 950 52"></path><text xmlns="http://www.w3.org/2000/svg" x="955" y="58">560</text><path stroke-width="2" d="M 945 16 L 950 16" /><path stroke-width="2" d="M 945 16 L 950 16"></path><text x="955" y="22" xmlns="http://www.w3.org/2000/svg">630</text><text xmlns="http://www.w3.org/2000/svg" x="987" y="175" transform="rotate(90.00,987,175)">Stargazers</text><path stroke-width="2" d="M 57.000000 346.000000 L 945 346" /><path stroke-width="2" d="M 57.000000 346.000000 L 945 346"></path><path stroke-width="2" d="M 58 346 L 58 351" /><path stroke-width="2" d="M 58 346 L 58 351"></path><text x="25" y="368" xmlns="http://www.w3.org/2000/svg">2024-03-29</text><path stroke-width="2" d="M 157 346 L 157 351" /><path stroke-width="2" d="M 157 346 L 157 351"></path><text xmlns="http://www.w3.org/2000/svg" x="124" y="368">2024-04-11</text><path stroke-width="2" d="M 256 346 L 256 351" /><path d="M 256 346 L 256 351" stroke-width="2"></path><text xmlns="http://www.w3.org/2000/svg" x="223" y="368">2024-04-23</text><path stroke-width="2" d="M 354 346 L 354 351" /><path stroke-width="2" d="M 354 346 L 354 351"></path><text y="368" xmlns="http://www.w3.org/2000/svg" x="321">2024-05-06</text><path stroke-width="2" d="M 453 346 L 453 351" /><path stroke-width="2" d="M 453 346 L 453 351"></path><text xmlns="http://www.w3.org/2000/svg" x="420" y="368">2024-05-19</text><path stroke-width="2" d="M 551 346 L 551 351" /><path stroke-width="2" d="M 551 346 L 551 351"></path><text xmlns="http://www.w3.org/2000/svg" x="518" y="368">2024-06-01</text><path stroke-width="2" d="M 650 346 L 650 351" /><path d="M 650 346 L 650 351" stroke-width="2"></path><text xmlns="http://www.w3.org/2000/svg" x="617" y="368">2024-06-13</text><path stroke-width="2" d="M 748 346 L 748 351" /><path d="M 748 346 L 748 351" stroke-width="2"></path><text xmlns="http://www.w3.org/2000/svg" x="715" y="368">2024-06-26</text><path stroke-width="2" d="M 847 346 L 847 351" /><path stroke-width="2" d="M 847 346 L 847 351"></path><text xmlns="http://www.w3.org/2000/svg" x="814" y="368">2024-07-09</text><path d="M 945 346 L 945 351" stroke-width="2" /><path stroke-width="2" d="M 945 346 L 945 351"></path><text y="368" xmlns="http://www.w3.org/2000/svg" x="912">2024-07-22</text><text x="487" y="390" xmlns="http://www.w3.org/2000/svg">Time</text></svg>